# xmcd
#
# Track frame offsets: 
#        150
#        15917
#        32156
#        49413
#        65319
#        81212
#        95368
#        111051
#        126634
#        141146
#        156988
#        172244
#        188828
#        204613
#        221839
#        237741
#
# Disc length: 3387 seconds
#
# Revision: 0
# Processed by: cddbd v1.5.2PL0 Copyright (c) Steve Scherf et al.
# Submitted via: ExactAudioCopy v1.0b1
#
DISCID=f00d3910
DTITLE=Blake Shelton - Red River Blue (Target T-Shirt Edition)
DYEAR=2011
DGENRE=Country
TTITLE0=Honey Bee
TTITLE1=Ready To Roll
TTITLE2=God Gave Me You
TTITLE3=Get Some
TTITLE4=Drink On It
TTITLE5=Good Ole Boys
TTITLE6=I'm Sorry
TTITLE7=Sunny In Seattle
TTITLE8=Over
TTITLE9=Hey
TTITLE10=Red River Blue
TTITLE11=Footloose (From The Soundtrack 'Footloose')
TTITLE12=Honey Bee (Karaoke Version)
TTITLE13=God Gave Me You (Karaoke Version)
TTITLE14=Drink On It (Karaoke Version)
TTITLE15=Footloose (Karaoke Version)
EXTD=
EXTT0=
EXTT1=
EXTT2=
EXTT3=
EXTT4=
EXTT5=
EXTT6=
EXTT7=
EXTT8=
EXTT9=
EXTT10=
EXTT11=
EXTT12=
EXTT13=
EXTT14=
EXTT15=
PLAYORDER=
